<svg width="54" height="48" viewBox="0 0 54 48" fill="none" xmlns="http://www.w3.org/2000/svg">
<g clip-path="url(#clip0_226_1148)">
<rect width="54" height="48" rx="20" fill="white"/>
<path d="M40.0203 32.9298C40.2549 34.1031 40.3616 35.1165 40.3403 35.9698C40.3403 36.8231 40.2443 37.5591 40.0523 38.1778C39.8816 38.7751 39.6363 39.2658 39.3163 39.6498C39.0176 40.0338 38.6976 40.3325 38.3563 40.5458C37.5243 41.0791 36.5109 41.2818 35.3163 41.1538C34.7189 41.1538 34.1856 41.0791 33.7163 40.9298C33.2469 40.7591 32.8309 40.5351 32.4683 40.2578C32.1056 39.9805 31.7963 39.6711 31.5403 39.3298C31.2843 38.9671 31.0603 38.6045 30.8683 38.2418C30.4416 37.3885 30.1429 36.4071 29.9723 35.2978C29.6949 33.8898 29.5456 32.4605 29.5243 31.0098C29.5029 29.5591 29.5243 28.2471 29.5883 27.0738C29.6736 25.7085 29.8016 24.3751 29.9723 23.0738C30.1003 22.3058 30.3456 21.6445 30.7083 21.0898C31.0923 20.5351 31.5403 20.0658 32.0523 19.6818C32.5643 19.2765 33.1189 18.9565 33.7163 18.7218C34.3136 18.4658 34.9216 18.2738 35.5403 18.1458C36.9696 17.8258 38.5376 17.7085 40.2443 17.7938C41.2683 17.8578 42.1643 17.9645 42.9323 18.1138C43.7216 18.2631 44.3936 18.4445 44.9483 18.6578C45.5029 18.8498 45.9723 19.0738 46.3563 19.3298C46.7403 19.5645 47.0496 19.8098 47.2843 20.0658C47.8389 20.6418 48.1269 21.2925 48.1483 22.0178C48.1696 22.5938 48.0736 23.1058 47.8603 23.5538C47.6683 23.9805 47.4016 24.3431 47.0603 24.6418C46.7189 24.9405 46.3243 25.1965 45.8763 25.4098C45.4283 25.6018 44.9696 25.7511 44.5003 25.8578C43.3909 26.1138 42.1109 26.2205 40.6603 26.1778C41.7269 26.3485 42.5269 26.6045 43.0603 26.9458C43.6149 27.2658 44.0096 27.6071 44.2443 27.9698C44.5216 28.3751 44.6603 28.8125 44.6603 29.2818C44.6603 30.1778 44.4149 30.8711 43.9243 31.3618C43.4336 31.8525 42.9003 32.2151 42.3243 32.4498C41.6416 32.7271 40.8736 32.8871 40.0203 32.9298Z" fill="black"/>
<path d="M17.928 15.352C17.9493 13.9867 18.152 12.7707 18.536 11.704C18.6853 11.256 18.888 10.808 19.144 10.36C19.4 9.912 19.72 9.51733 20.104 9.176C20.488 8.83467 20.936 8.55733 21.448 8.344C21.96 8.13067 22.568 8.024 23.272 8.024C24.0827 8.088 24.84 8.35467 25.544 8.824C26.1413 9.22933 26.7067 9.86933 27.24 10.744C27.7947 11.5973 28.168 12.8027 28.36 14.36C28.5307 15.8747 28.6267 17.304 28.648 18.648C28.6693 19.992 28.6587 21.176 28.616 22.2C28.552 23.3947 28.4667 24.504 28.36 25.528C28.232 26.5733 27.9653 27.512 27.56 28.344C27.3893 28.7067 27.176 29.0587 26.92 29.4C26.664 29.72 26.3547 30.0187 25.992 30.296C25.6507 30.552 25.256 30.7547 24.808 30.904C24.36 31.0533 23.848 31.128 23.272 31.128C22.632 31.128 22.0667 31.0213 21.576 30.808C21.0853 30.5947 20.6587 30.3173 20.296 29.976C19.9333 29.6133 19.624 29.2187 19.368 28.792C19.1333 28.344 18.9307 27.896 18.76 27.448C18.376 26.3813 18.1413 25.176 18.056 23.832H16.872C16.744 25.1973 16.4667 26.4027 16.04 27.448C15.848 27.896 15.6133 28.344 15.336 28.792C15.08 29.2187 14.7707 29.6027 14.408 29.944C14.0453 30.264 13.6187 30.5307 13.128 30.744C12.6373 30.9573 12.0827 31.064 11.464 31.064C10.5893 31.0427 9.8 30.8187 9.096 30.392C8.79733 30.2 8.488 29.9653 8.168 29.688C7.86933 29.4107 7.592 29.0587 7.336 28.632C7.08 28.184 6.856 27.672 6.664 27.096C6.49333 26.4987 6.376 25.8053 6.312 25.016C6.14133 23.16 6.056 21.528 6.056 20.12C6.07733 18.6907 6.12 17.4747 6.184 16.472C6.26933 15.2987 6.38667 14.2853 6.536 13.432C6.70667 12.4293 6.99467 11.5333 7.4 10.744C7.57067 10.4027 7.77333 10.072 8.008 9.752C8.264 9.432 8.552 9.144 8.872 8.888C9.21333 8.632 9.58667 8.42933 9.992 8.28C10.4187 8.13067 10.888 8.056 11.4 8.056C12.104 8.056 12.712 8.16267 13.224 8.376C13.736 8.58933 14.184 8.86667 14.568 9.208C14.952 9.54933 15.2613 9.944 15.496 10.392C15.752 10.8187 15.9653 11.256 16.136 11.704C16.52 12.7707 16.712 13.9867 16.712 15.352H17.928Z" fill="#E5AF10"/>
</g>
<defs>
<clipPath id="clip0_226_1148">
<rect width="54" height="48" rx="20" fill="white"/>
</clipPath>
</defs>
</svg>
